<svg xmlns="http://www.w3.org/2000/svg" viewBox="0 0 36 36"><circle cx="18" cy="18" r="17.5" fill="rgba(0,0,0,.4)"/><path fill="#fff" d="M18 33.5a1 1 0 010-2c.47 0 .934-.024 1.395-.07a.998.998 0 11.205 1.988c-.53.055-1.063.082-1.6.082zm5.54-1.02c.5-.192.99-.41 1.467-.65a1 1 0 00-.905-1.785c-.415.21-.84.4-1.276.567a1.001 1.001 0 00-.577 1.292c.19.515.77.773 1.29.576zm4.807-2.94c.398-.356.777-.733 1.136-1.13.37-.408.34-1.04-.068-1.412a1 1 0 00-1.413.07c-.313.344-.644.673-.99.984a.999.999 0 101.335 1.489zm3.423-4.418c.247-.475.468-.963.663-1.46a1 1 0 10-1.861-.732c-.17.434-.363.858-.577 1.27a1 1 0 001.775.922zm1.64-5.436c.057-.53.087-1.062.09-1.6a1 1 0 00-.995-1.005c-.552 0-1.002.45-1.005 1-.003.47-.03.94-.08 1.4-.06.55.338 1.05.887 1.11a.998.998 0 001.102-.886zm-.416-5.626a15 15 0 00-.486-1.528 1.001 1.001 0 00-1.29-.583.991.991 0 00-.582 1.28c.164.43.306.88.424 1.33a1 1 0 001.934-.51zm-2.398-5.094a15.491 15.491 0 00-1-1.252c-.368-.414-1-.45-1.413-.084a.999.999 0 00-.084 1.41c.31.35.6.714.87 1.093.32.448.94.55 1.39.228.45-.32.55-.94.23-1.39zm-4.133-3.953a15.06 15.06 0 00-1.386-.806.998.998 0 00-1.346.432.998.998 0 00.44 1.34c.42.21.82.45 1.21.7.47.3 1.09.17 1.39-.29.3-.47.17-1.08-.29-1.39zm-5.112-2.15c-.52-.115-1.04-.203-1.58-.263a.992.992 0 00-1.1.88 1 1 0 00.88 1.107c.47.053.93.13 1.38.23a1.01 1.01 0 001.2-.762 1 1 0 00-.76-1.192zM15.7 2.67c-.53.08-1.055.186-1.572.32a1 1 0 10.5 1.937c.45-.117.905-.21 1.367-.278.547-.09.923-.6.84-1.14a.988.988 0 00-1.135-.84zM10.38 4.5c-.464.264-.916.552-1.352.862a1 1 0 001.158 1.63c.38-.27.773-.52 1.178-.75.48-.272.65-.883.38-1.363a.995.995 0 00-1.363-.38zM6.024 8.16c-.34.414-.658.844-.954 1.29a.999.999 0 101.665 1.106c.257-.39.534-.765.83-1.125A.997.997 0 006.02 8.17zm-2.71 4.87c-.17.506-.315 1.02-.433 1.544a1.005 1.005 0 001.96.44c.11-.455.23-.903.38-1.343a.987.987 0 00-.62-1.26c-.523-.17-1.09.11-1.27.63zm-.8 5.622c.023.536.072 1.07.15 1.595a1 1 0 001.978-.287c-.064-.46-.11-.923-.126-1.39a1.004 1.004 0 00-1.04-.96c-.553.024-.98.49-.96 1.042zm1.258 5.504c.216.49.454.97.716 1.437.27.48.88.65 1.362.38.48-.27.652-.88.38-1.36a13.865 13.865 0 01-.62-1.252c-.22-.5-.808-.73-1.315-.52-.506.22-.74.81-.52 1.32zm3.145 4.676c.373.382.766.745 1.177 1.087a1.01 1.01 0 001.41-.13c.353-.43.295-1.06-.13-1.41-.36-.3-.7-.62-1.026-.95a.992.992 0 00-1.414-.02.994.994 0 00-.017 1.41zm4.557 3.23c.486.225.98.425 1.49.6a1.001 1.001 0 00.65-1.892c-.44-.152-.873-.326-1.295-.522a1 1 0 00-1.33.485.992.992 0 00.48 1.328zm5.506 1.405a1 1 0 01.131-1.996c.29.02.59.03.88.03.56 0 1 .45 1 1 0 .56-.45 1-1 1-.33 0-.67-.01-1-.03zM24 19v3h-2v-8h5v2h-3v1h2v2h-2zm-6-5h2v8h-2v-8zm-4 5.93V19h-1.5v-2H16v4.035l-.445.297c-1.836 1.224-3.774 1.224-5.61 0-2.093-1.396-2.093-5.268 0-6.664 1.836-1.224 3.774-1.224 5.61 0l-1.11 1.664c-1.164-.776-2.226-.776-3.39 0-.907.604-.907 2.732 0 3.336 1.014.676 1.95.763 2.945.26z"/></svg>